<svg id="Layer_1" data-name="Layer 1" xmlns="http://www.w3.org/2000/svg" viewBox="0 0 285.35 285.35"><defs><style>.cls-1{fill:#fff;}</style></defs><circle id="Ellipse_1" data-name="Ellipse 1" class="cls-1" cx="142.68" cy="142.68" r="142.68"/><path id="linkedin-in-brands" d="M102.09,215.89H67.38V104.11h34.71Zm-17.38-127a20.2,20.2,0,1,1,20.11-20.3A20.2,20.2,0,0,1,84.71,88.86ZM232,215.92H197.37V161.47c0-13-.26-29.61-18-29.61-18.05,0-20.82,14.09-20.82,28.66v55.37H123.83V104.11h33.3v15.24h.48a36.49,36.49,0,0,1,32.85-18c35.13,0,41.59,23.15,41.59,53.18v61.41Z"/></svg>