<?xml version="1.0" encoding="utf-8"?>
<!-- Generator: Adobe Illustrator 24.2.1, SVG Export Plug-In . SVG Version: 6.00 Build 0)  -->
<svg version="1.1" id="Layer_1" xmlns="http://www.w3.org/2000/svg" xmlns:xlink="http://www.w3.org/1999/xlink" x="0px" y="0px"
	 viewBox="0 0 24 24" style="enable-background:new 0 0 24 24;" xml:space="preserve">
<style type="text/css">
	.st0{fill:none;stroke:#FFFFFF;stroke-miterlimit:10;}
	.st1{fill:#FFFFFF;stroke:#FFFFFF;stroke-miterlimit:10;}
</style>
<path class="st0" d="M2,3h6c2.2,0,4,1.8,4,4v14c0-1.7-1.3-3-3-3H2V3z"/>
<path class="st0" d="M22,3h-6c-2.2,0-4,1.8-4,4v14c0-1.7,1.3-3,3-3h7V3z"/>
<path class="st1" d="M4.2,7.2c0,0,3.9-0.6,5.4,0.6"/>
<path class="st1" d="M19.8,7.2c0,0-3.9-0.6-5.4,0.6"/>
<path class="st1" d="M19.8,10.1c0,0-3.9-0.6-5.4,0.6"/>
<path class="st1" d="M20,13c0,0-3.9-0.6-5.4,0.6"/>
<path class="st1" d="M4.2,10.1c0,0,3.9-0.6,5.4,0.6"/>
<path class="st1" d="M4.1,13c0,0,3.9-0.6,5.4,0.6"/>
</svg>
